<svg width="656" height="540" viewBox="0 0 656 540" fill="none" xmlns="http://www.w3.org/2000/svg">
<path d="M418.036 404.821V534.993H130.861C98.1411 534.993 71.52 505.795 71.52 469.907C71.52 434.02 98.1411 404.821 130.861 404.821H418.036Z" fill="#F2F2F2"/>
<path d="M425.09 533.992C425.089 535.32 424.625 536.593 423.798 537.532C422.971 538.47 421.85 538.998 420.681 538.999H125.746C109.727 538.999 94.3649 531.772 83.0381 518.909C71.7113 506.046 65.348 488.599 65.348 470.408C65.348 452.217 71.7113 434.77 83.0381 421.907C94.3649 409.044 109.727 401.817 125.746 401.817H420.681C421.851 401.817 422.972 402.345 423.799 403.284C424.625 404.223 425.09 405.496 425.09 406.824C425.09 408.152 424.625 409.425 423.799 410.364C422.972 411.303 421.851 411.831 420.681 411.831H125.746C112.066 411.831 98.946 418.002 89.2728 428.987C79.5995 439.973 74.1652 454.872 74.1652 470.408C74.1652 485.944 79.5995 500.843 89.2728 511.828C98.946 522.814 112.066 528.985 125.746 528.985H420.681C421.85 528.986 422.971 529.514 423.798 530.452C424.625 531.391 425.089 532.664 425.09 533.992Z" fill="#C2185B"/>
<path d="M418.036 434.861H109.434C109.2 434.861 108.976 434.755 108.811 434.568C108.645 434.38 108.552 434.125 108.552 433.86C108.552 433.594 108.645 433.339 108.811 433.152C108.976 432.964 109.2 432.858 109.434 432.858H418.036C418.27 432.858 418.494 432.964 418.66 433.152C418.825 433.339 418.918 433.594 418.918 433.86C418.918 434.125 418.825 434.38 418.66 434.568C418.494 434.755 418.27 434.861 418.036 434.861Z" fill="#CCCCCC"/>
<path d="M418.036 458.893H109.434C109.2 458.893 108.976 458.787 108.811 458.599C108.645 458.412 108.552 458.157 108.552 457.891C108.552 457.626 108.645 457.371 108.811 457.183C108.976 456.996 109.2 456.89 109.434 456.89H418.036C418.27 456.89 418.494 456.996 418.66 457.183C418.825 457.371 418.918 457.626 418.918 457.891C418.918 458.157 418.825 458.412 418.66 458.599C418.494 458.787 418.27 458.893 418.036 458.893Z" fill="#CCCCCC"/>
<path d="M418.036 482.925H109.434C109.2 482.925 108.976 482.819 108.811 482.631C108.645 482.443 108.552 482.189 108.552 481.923C108.552 481.658 108.645 481.403 108.811 481.215C108.976 481.027 109.2 480.922 109.434 480.922H418.036C418.27 480.922 418.494 481.027 418.66 481.215C418.825 481.403 418.918 481.658 418.918 481.923C418.918 482.189 418.825 482.443 418.66 482.631C418.494 482.819 418.27 482.925 418.036 482.925Z" fill="#CCCCCC"/>
<path d="M418.036 506.956H109.434C109.2 506.956 108.976 506.851 108.811 506.663C108.645 506.475 108.552 506.221 108.552 505.955C108.552 505.689 108.645 505.435 108.811 505.247C108.976 505.059 109.2 504.954 109.434 504.954H418.036C418.27 504.954 418.494 505.059 418.66 505.247C418.825 505.435 418.918 505.689 418.918 505.955C418.918 506.221 418.825 506.475 418.66 506.663C418.494 506.851 418.27 506.956 418.036 506.956Z" fill="#CCCCCC"/>
<path d="M639.981 429.325L568.063 530.687L344.446 326.066C318.967 302.752 314.37 261.048 334.197 233.103C354.024 205.158 390.885 201.39 416.363 224.704L639.981 429.325Z" fill="#F2F2F2"/>
<path d="M574.109 534.933C573.375 535.967 572.31 536.627 571.148 536.769C569.985 536.911 568.821 536.523 567.91 535.691L338.25 325.54C325.776 314.127 317.806 297.553 316.093 279.466C314.38 261.379 319.064 243.26 329.114 229.095C339.164 214.93 353.758 205.879 369.685 203.933C385.611 201.987 401.566 207.306 414.039 218.72L643.7 428.87C644.151 429.283 644.526 429.792 644.804 430.369C645.082 430.946 645.257 431.58 645.319 432.234C645.381 432.888 645.329 433.549 645.166 434.18C645.003 434.811 644.732 435.4 644.369 435.912C644.005 436.424 643.557 436.85 643.048 437.165C642.54 437.48 641.982 437.678 641.406 437.749C640.83 437.819 640.248 437.759 639.692 437.574C639.137 437.388 638.619 437.08 638.168 436.667L408.507 226.517C403.233 221.687 397.173 218.084 390.672 215.915C384.172 213.745 377.359 213.052 370.622 213.873C363.885 214.695 357.357 217.015 351.41 220.703C345.464 224.39 340.215 229.372 335.964 235.363C331.713 241.355 328.543 248.238 326.635 255.622C324.727 263.005 324.119 270.742 324.845 278.392C325.571 286.043 327.617 293.455 330.866 300.207C334.116 306.959 338.504 312.918 343.782 317.743L573.442 527.894C574.352 528.727 574.934 529.937 575.059 531.257C575.184 532.577 574.842 533.899 574.109 534.933V534.933Z" fill="#CCCCCC"/>
<path d="M623.384 452.716L383.082 232.828C382.992 232.745 382.917 232.643 382.861 232.528C382.806 232.413 382.771 232.286 382.758 232.155C382.746 232.024 382.756 231.892 382.789 231.766C382.822 231.64 382.876 231.522 382.948 231.42C383.021 231.317 383.111 231.232 383.212 231.169C383.314 231.106 383.426 231.067 383.541 231.053C383.656 231.038 383.772 231.05 383.883 231.087C383.994 231.124 384.098 231.186 384.188 231.268L624.491 451.156C624.581 451.239 624.656 451.341 624.712 451.456C624.767 451.572 624.802 451.698 624.815 451.829C624.827 451.96 624.817 452.092 624.784 452.219C624.752 452.345 624.698 452.463 624.625 452.565C624.552 452.668 624.462 452.753 624.361 452.816C624.259 452.879 624.147 452.919 624.032 452.933C623.917 452.947 623.8 452.935 623.689 452.897C623.578 452.86 623.474 452.799 623.384 452.716V452.716Z" fill="#CCCCCC"/>
<path d="M610.107 471.429L369.805 251.541C369.623 251.374 369.507 251.132 369.482 250.868C369.457 250.605 369.526 250.34 369.672 250.134C369.819 249.927 370.032 249.795 370.264 249.766C370.496 249.738 370.729 249.815 370.911 249.981L611.214 469.87C611.304 469.952 611.379 470.054 611.435 470.169C611.49 470.285 611.525 470.411 611.538 470.542C611.55 470.673 611.54 470.806 611.507 470.932C611.475 471.058 611.421 471.176 611.348 471.278C611.275 471.381 611.185 471.466 611.084 471.529C610.982 471.592 610.87 471.632 610.755 471.646C610.64 471.66 610.523 471.648 610.412 471.611C610.301 471.573 610.197 471.512 610.107 471.429V471.429Z" fill="#CCCCCC"/>
<path d="M596.83 490.142L356.528 270.254C356.346 270.087 356.229 269.845 356.204 269.581C356.179 269.317 356.248 269.053 356.394 268.846C356.541 268.639 356.754 268.507 356.987 268.479C357.219 268.45 357.452 268.528 357.634 268.695L597.937 488.583C598.027 488.665 598.102 488.767 598.157 488.882C598.213 488.998 598.248 489.125 598.26 489.255C598.272 489.386 598.262 489.518 598.229 489.644C598.197 489.771 598.143 489.888 598.07 489.991C597.997 490.093 597.908 490.178 597.806 490.241C597.704 490.304 597.593 490.344 597.478 490.358C597.363 490.372 597.246 490.36 597.135 490.323C597.024 490.286 596.92 490.225 596.83 490.142V490.142Z" fill="#CCCCCC"/>
<path d="M583.553 508.855L343.251 288.967C343.161 288.885 343.086 288.783 343.03 288.667C342.975 288.552 342.94 288.425 342.927 288.294C342.915 288.164 342.925 288.031 342.958 287.905C342.991 287.779 343.045 287.661 343.117 287.559C343.19 287.457 343.28 287.372 343.381 287.309C343.483 287.246 343.595 287.206 343.71 287.192C343.825 287.178 343.941 287.19 344.052 287.227C344.163 287.264 344.267 287.325 344.357 287.408L584.66 507.296C584.75 507.378 584.825 507.48 584.881 507.595C584.936 507.711 584.971 507.838 584.984 507.968C584.996 508.099 584.986 508.232 584.953 508.358C584.921 508.484 584.866 508.602 584.794 508.705C584.721 508.807 584.631 508.892 584.53 508.955C584.428 509.018 584.316 509.058 584.201 509.072C584.086 509.086 583.969 509.074 583.858 509.037C583.747 509 583.643 508.938 583.553 508.855V508.855Z" fill="#CCCCCC"/>
<path d="M655.118 540H0.88172C0.647874 540 0.423604 539.894 0.258249 539.707C0.0928946 539.519 0 539.264 0 538.999C0 538.733 0.0928946 538.478 0.258249 538.291C0.423604 538.103 0.647874 537.997 0.88172 537.997H655.118C655.352 537.997 655.576 538.103 655.742 538.291C655.907 538.478 656 538.733 656 538.999C656 539.264 655.907 539.519 655.742 539.707C655.576 539.894 655.352 540 655.118 540Z" fill="#CCCCCC"/>
</svg>
